<?xml version="1.0" encoding="UTF-8" standalone="no"?>
<!DOCTYPE svg PUBLIC "-//W3C//DTD SVG 1.1//EN" "http://www.w3.org/Graphics/SVG/1.1/DTD/svg11.dtd">
<svg width="100%" height="100%" viewBox="0 0 240 240" version="1.1" xmlns="http://www.w3.org/2000/svg" xmlns:xlink="http://www.w3.org/1999/xlink" xml:space="preserve" xmlns:serif="http://www.serif.com/" style="fill-rule:evenodd;clip-rule:evenodd;stroke-linejoin:round;stroke-miterlimit:2;">
    <g transform="matrix(1.66319,0,0,1.66319,-74.8964,-82.9822)">
        <path d="M81.229,128.772L95.466,168.178C95.466,168.178 97.246,171.865 99.152,171.865C101.058,171.865 129.407,142.373 129.407,142.373L160.932,81.483L81.737,118.6L81.229,128.772Z" style="fill:rgb(227,227,227);fill-rule:nonzero;"/>
    </g>
    <g transform="matrix(1.66319,0,0,1.66319,-74.8964,-82.9822)">
        <path d="M100.106,138.878L97.373,167.924C97.373,167.924 96.229,176.824 105.127,167.924C114.025,159.024 122.542,152.161 122.542,152.161" style="fill:rgb(200,200,200);fill-rule:nonzero;"/>
    </g>
    <g transform="matrix(1.66319,0,0,1.66319,-74.8964,-82.9822)">
        <path d="M81.486,130.178L52.2,120.636C52.2,120.636 48.7,119.216 49.827,115.996C50.059,115.332 50.527,114.767 51.927,113.796C58.416,109.273 172.033,68.436 172.033,68.436C172.033,68.436 175.241,67.355 177.133,68.074C178.085,68.369 178.806,69.155 179.018,70.129C179.222,70.975 179.308,71.845 179.272,72.714C179.263,73.466 179.172,74.163 179.103,75.256C178.411,86.421 157.703,169.749 157.703,169.749C157.703,169.749 156.464,174.625 152.025,174.792C149.822,174.863 147.682,174.035 146.1,172.5C137.389,165.007 107.281,144.773 100.628,140.323C100.325,140.116 100.125,139.788 100.082,139.423C99.989,138.954 100.499,138.373 100.499,138.373C100.499,138.373 152.925,91.773 154.32,86.881C154.428,86.502 154.02,86.315 153.472,86.481C149.99,87.762 89.628,125.881 82.966,130.088C82.486,130.233 81.98,130.264 81.486,130.178Z" style="fill:white;fill-rule:nonzero;"/>
    </g>
</svg>
