<svg xmlns="http://www.w3.org/2000/svg" viewBox="0 0 410.88 184.57"><defs><style>.cls-1{font-size:60px;font-family:SundayBest, Sunday Best;letter-spacing:0em;}.cls-1,.cls-3,.cls-5{fill:#fff;}.cls-2{letter-spacing:-0.05em;}.cls-3{font-size:50px;font-family:LouisGeorgeCafe, Louis George Cafe;letter-spacing:0.06em;}.cls-4{fill:#1d1d1b;}.cls-5{stroke:#1d1d1b;stroke-miterlimit:10;}</style></defs><g id="Layer_2" data-name="Layer 2"><g id="Layer_1-2" data-name="Layer 1"><text class="cls-1" transform="translate(106.85 111.96)">P<tspan class="cls-2" x="41.82" y="0">A</tspan><tspan x="85.56" y="0">WSKE</tspan></text><text class="cls-3" transform="translate(106.87 172.36)">PARTY</text><path class="cls-4" d="M80.77,129.08a75.66,75.66,0,0,0-4.68-26.34c-.39-1.08-.81-2.13-1.25-3.15l-9.51-7.52a1.92,1.92,0,0,1-.08-2.95c3.5-3.07,8-7.18,13.2-12.16,6-5.8,14-13.48,19.18-20,5.5-6.89,13.5-19.48,17.31-40.29q-17.41,6-35,12.85l-2.69,1.05,1-3.32c2.83-9.6,3.51-11.38,4.12-13.9A46.14,46.14,0,0,0,83.55,0,201.12,201.12,0,0,0,36.16,28.82c-.92,1.62-2.28,4-3.93,7C8.86,77.61,5.29,87.57,3.71,92.38c-2,6-2.28,14.39-3.71,25.49,2.33,12,6.15,25.24,12.32,37.32.39.76.79,1.52,1.19,2.28l1.56.79c33.19,16.67,44.56,18.18,50.72,18.85l2.32.23c.57-.23,1.5-.6,2.62-1.11,2.25-1,11-5,24.31-17.78,3.2-3,3.82-3.89,4-4.43,0,0,0-.12.07-.25C99.84,151.15,88.41,137.71,80.77,129.08ZM92.67,152c-2.08,0-4.31.17-6.68.41-2,.21-3.9.47-5.68.78a13.56,13.56,0,0,0,.21,1.75,13.41,13.41,0,0,0,.37,1.59L87,159.81c-2.27,1.72-4.73,3.48-7.38,5.22a127.55,127.55,0,0,1-11.93,7,215.86,215.86,0,0,1-21.62-5.55,219.76,219.76,0,0,1-28.56-11.12c-2.55-5.45-5.1-11.56-7.47-18.29a200.33,200.33,0,0,1-5.76-19.56A122.85,122.85,0,0,1,5.6,103.83c.68-4.34,1.53-8.34,2.47-11.94,4.09-8.74,8.61-17.8,13.59-27.09,6.58-12.24,13.27-23.59,19.89-34.06C46.86,27,52.73,23.18,59.17,19.4c6.6-3.87,13-7.19,18.9-10-1,3.16-1.93,6.34-2.9,9.51L46.73,46.26Q37,62.18,27.25,78.12L22.39,92.5A53.89,53.89,0,0,1,31.85,90,55.32,55.32,0,0,1,38,89.33L72.46,40.57c5.55-3.11,11.77-6.26,18.65-9.29s13.41-5.46,19.45-7.43c-.87,2.2-1.72,4.4-2.59,6.6-2.38,1.36-4.89,2.72-7.52,4.06q-4.2,2.16-8.19,4A279.6,279.6,0,0,0,48.73,90.6a45,45,0,0,1,21.56,13.52c1.16,4.28,2.26,8.9,3.23,13.84.89,4.53,1.57,8.87,2.1,13a87.62,87.62,0,0,1,10,10.68A85.68,85.68,0,0,1,92.67,152Z"/><path class="cls-4" d="M110.56,23.85c-.87,2.2-1.72,4.4-2.59,6.6-2.38,1.36-4.89,2.72-7.52,4.06q-4.2,2.16-8.19,4A279.6,279.6,0,0,0,48.73,90.6a45,45,0,0,1,21.56,13.52c1.16,4.28,2.26,8.9,3.23,13.84.89,4.53,1.57,8.87,2.1,13a87.62,87.62,0,0,1,10,10.68A85.68,85.68,0,0,1,92.67,152c-2.08,0-4.31.17-6.68.41-2,.21-3.9.47-5.68.78a13.56,13.56,0,0,0,.21,1.75,13.41,13.41,0,0,0,.37,1.59L87,159.81c-2.27,1.72-4.73,3.48-7.38,5.22a127.55,127.55,0,0,1-11.93,7,215.86,215.86,0,0,1-21.62-5.55,219.76,219.76,0,0,1-28.56-11.12c-2.55-5.45-5.1-11.56-7.47-18.29a200.33,200.33,0,0,1-5.76-19.56A122.85,122.85,0,0,1,5.6,103.83c.68-4.34,1.53-8.34,2.47-11.94,4.09-8.74,8.61-17.8,13.59-27.09,6.58-12.24,13.27-23.59,19.89-34.06C46.86,27,52.73,23.18,59.17,19.4c6.6-3.87,13-7.19,18.9-10-1,3.16-1.93,6.34-2.9,9.51L46.73,46.26Q37,62.18,27.25,78.12L22.39,92.5A53.89,53.89,0,0,1,31.85,90,55.32,55.32,0,0,1,38,89.33L72.46,40.57c5.55-3.11,11.77-6.26,18.65-9.29S104.52,25.82,110.56,23.85Z"/><path class="cls-5" d="M109.6,24c-.87,2.2-1.72,4.4-2.59,6.6-2.38,1.36-3.93,2.62-6.56,4q-4.2,2.16-8.19,4A279.6,279.6,0,0,0,48.73,90.6a45,45,0,0,1,21.56,13.52c1.16,4.28,2.26,8.9,3.23,13.84.89,4.53,1.57,8.87,2.1,13a87.62,87.62,0,0,1,10,10.68A85.68,85.68,0,0,1,92.67,152c-2.08,0-4.31.17-6.68.41-2,.21-3.9.47-5.68.78a13.56,13.56,0,0,0,.21,1.75,13.41,13.41,0,0,0,.37,1.59L87,159.81c-2.27,1.72-4.73,3.48-7.38,5.22a127.55,127.55,0,0,1-11.93,7,215.86,215.86,0,0,1-21.62-5.55,219.76,219.76,0,0,1-28.56-11.12c-2.55-5.45-5.1-11.56-7.47-18.29a200.33,200.33,0,0,1-5.76-19.56A122.85,122.85,0,0,1,5.6,103.83c.68-4.34,1.53-8.34,2.47-11.94,4.09-8.74,8.61-17.8,13.59-27.09,6.58-12.24,13.27-23.59,19.89-34.06C46.86,27,52.73,23.18,59.17,19.4c6.6-3.87,13-7.19,18.9-10-1,3.16-1.93,6.34-2.9,9.51L46.73,46.26Q37,62.18,27.25,78.12L22.39,92.5A53.89,53.89,0,0,1,31.85,90,55.32,55.32,0,0,1,38,89.33L72.46,40.57c5.55-3.11,11.77-6.26,18.65-9.29A197.59,197.59,0,0,1,109.6,24Z"/><path class="cls-4" d="M30.47,125q2.78.3,5.82.81c1.79.31,3.51.65,5.14,1,3.6,1.52,7.43,3.3,11.42,5.4,3.74,2,7.17,4,10.3,5.92l-8.65,1.51c-4-2-8.12-4.34-12.44-7S34,127.52,30.47,125Z"/></g></g></svg>